<?xml version="1.0" encoding="utf-8"?>
<!-- Generator: Adobe Illustrator 21.1.0, SVG Export Plug-In . SVG Version: 6.00 Build 0)  -->
<svg version="1.1" id="Layer_1" xmlns="http://www.w3.org/2000/svg" xmlns:xlink="http://www.w3.org/1999/xlink" x="0px" y="0px"
	 viewBox="0 0 512 108" style="enable-background:new 0 0 512 108;" xml:space="preserve">
<style type="text/css">
	.st0{fill:#FFFFFF;}
	.st1{fill:#808080;}
	.st2{fill:#C72B34;}
	.st3{fill:#231F20;}
</style>
<g>
	<path class="st0" d="M510.6,61.6h-39c-0.8,0-1.4-0.6-1.4-1.4V44.6c0-0.8,0.6-1.4,1.4-1.4h39c0.8,0,1.4,0.6,1.4,1.4v15.6
		C512,61,511.4,61.6,510.6,61.6"/>
	<path class="st0" d="M155.6,48.5c-10.5-10.6-28-8.4-35.5,0.3c-8.5,9.9-7.6,27.4,2,36c5.4,4.9,12.1,6,19.1,5.5
		c7.6-0.5,13.9-3.5,18-10.4c5.5,8.3,13.6,10.2,22.5,10.5c9.1,0.2,17.1-1.9,22.9-9.7c4.2,6.7,10.4,9.2,17.7,9.6
		c7.2,0.4,14-0.6,19.5-5.6c8.4,7.6,17.3,6.9,26.6,2.4c3.9,3.7,8.2,4.5,13,1.4c0.3-0.2,1.1-0.1,1.5,0.1c8,4.4,15.7,0,15.8-9.1
		c0-4.6,0-9.2,0-13.8c0-1.5,0-3.1,0.5-4.4c0.4-1,1.8-1.5,2.7-2.3c0.4,0.8,1,1.7,1.3,2.6c0.2,0.6,0.1,1.3,0.1,1.9
		c0,5.4,0,10.9,0,16.3c0,5.4,2.8,9.3,7.4,10.2c4.4,0.9,8.1-0.4,10.7-4c8.2,6,16.6,5.2,25.2,0.9c2.4,2.5,5.4,3.9,9,3.2
		c3.5-0.7,5.8-2.9,7.4-6.2c1.9,3.6,4.5,5.9,8.4,6.4c0.5,0.1,1,0.6,1.2,0.8c2-0.7,4.2-1.1,5.8-2.2c1.7-1.2,3-3,4-4.8
		c1-1.8,1.5-4,2.6-6.7c1,7.6,4.5,13.1,11.6,13.4c5.7,0.2,9.8-4.1,11.2-10.5c5.2,10.7,18,12.9,29.1,6.9c5.6,4.2,7.9,4.4,13.9,0.9
		c2.6,2.1,5.7,2.9,9,2c4.6-1.1,7.3-5,7.4-10.1c0.1-5.3,0-10.6,0.1-15.9c0-1.4,0.7-2.9,1.3-4.2c0.3-0.5,1.4-0.8,2.1-0.7
		c0.4,0,0.8,1,0.9,1.6c0.2,1,0.2,2,0.2,3c0,5.5,0,10.9,0,16.3c0.1,4.7,2.7,8.5,6.7,9.8c6.8,2.2,12.9-2.4,13-10
		c0.1-6.7,0.1-13.3,0-20c0-5.4-1.3-10.5-5.7-14.1c-6.2-5.2-13.1-5.5-20.4-2.7c-1.3,0.5-2.1,0.5-3.5-0.1c-2-0.9-4.3-1.4-6.5-1.4
		c-3.6,0.1-5.9,2.4-7.3,5.3c-10.6-7.7-21.6-6.7-32.9-2.1c-5-5.6-14.7-4.7-16.9,5c-0.4,1.7-0.9,3.3-1.6,5.4c-0.8-2.6-1.4-4.6-2.2-6.6
		c-1.7-4.5-5.9-7.5-10.2-7.3c-4.7,0.2-8.3,3.1-9.9,7.7c-0.6,1.9-1.2,3.8-1.9,6.1c-0.8-2.6-1.4-4.7-2.2-6.8c-2.6-7-9.2-8.9-15.2-4.5
		c-0.4,0.3-1.3,0.5-1.8,0.3c-6.4-3-13.2-3.1-20-2c-5.3,0.8-9.7,3.2-13.1,7.4c-5.6-7.9-13.1-9.1-21.8-7c0-2,0.1-3.8,0-5.7
		c-0.4-5.5-4.2-9.2-9.6-9.4c-5.1-0.2-9.1,3.2-9.9,8.5c-0.3,2-0.2,4.1-0.3,6.2c0,1.4,0,2.8,0,4.5c-5.8-4.9-12.3-5.3-18.9-5.1
		c-6.8,0.2-12.9,2.2-17.2,7.4c-10.8-9.3-22-9.6-34-2.9c0-2.9,0.1-5.9,0-8.8c-0.3-5.5-4-9.2-9.3-9.8c-5.1-0.5-9.4,2.4-10.7,7.3
		c-0.4,1.4-0.5,3-0.5,4.5c-0.1,9,0,17.9-0.2,26.9c-0.1,4.7-1.7,6.1-6.4,5.9c-0.4,0-0.9-0.1-1.3-0.1c-2.2-0.2-3.4-1.4-3.8-3.5
		c-0.3-1.7-0.4-3.4-0.5-5.1c0-8.5,0.1-17.1,0-25.6c-0.1-8-8.1-12.8-15.1-9.2c-4.1,2.1-5.4,5.9-5.5,10.2
		C155.6,41.7,155.6,44.8,155.6,48.5"/>
	<path class="st0" d="M108.4,54.2c0-29.7-24-54-53-54.4C24.7-0.7,0.5,24.1,0,53.1c-0.5,29.2,22.9,54.9,53.8,55.1
		C84.2,108.3,108.4,84.3,108.4,54.2"/>
	<path class="st1" d="M147.3,67.9h-18.6c0,2.2,0.5,4.1,1.3,5.7c0.8,1.6,2,2.9,3.4,3.7c1.4,0.8,3,1.3,4.7,1.3c1.1,0,2.2-0.1,3.1-0.4
		c0.9-0.3,1.9-0.7,2.7-1.3c0.9-0.6,1.7-1.2,2.4-1.8c0.7-0.7,1.7-1.5,2.9-2.7c0.5-0.4,1.2-0.6,2.1-0.6c1,0,1.8,0.3,2.4,0.8
		c0.6,0.5,0.9,1.3,0.9,2.3c0,0.9-0.3,1.9-1,3c-0.7,1.2-1.7,2.3-3.1,3.3c-1.4,1.1-3.1,1.9-5.1,2.6c-2.1,0.7-4.4,1.1-7.1,1.1
		c-6.1,0-10.9-1.7-14.3-5.2c-3.4-3.5-5.1-8.2-5.1-14.2c0-2.8,0.4-5.4,1.3-7.8c0.8-2.4,2.1-4.5,3.7-6.2c1.6-1.7,3.6-3,5.9-4
		c2.4-0.9,5-1.4,7.8-1.4c3.7,0,6.9,0.8,9.6,2.4c2.7,1.6,4.7,3.6,6,6.1c1.3,2.5,2,5,2,7.6c0,2.4-0.7,4-2.1,4.7
		C151.7,67.5,149.8,67.9,147.3,67.9 M128.6,62.5h17.3c-0.2-3.3-1.1-5.7-2.6-7.3c-1.5-1.6-3.5-2.4-6-2.4c-2.4,0-4.3,0.8-5.8,2.5
		C129.9,56.8,129,59.2,128.6,62.5"/>
	<path class="st2" d="M160.2,62.9V38.3c0-2.1,0.5-3.7,1.4-4.7c0.9-1,2.2-1.6,3.7-1.6c1.6,0,2.9,0.5,3.8,1.6c0.9,1,1.4,2.6,1.4,4.7
		v25.2c0,2.9,0.3,5.3,1,7.2c0.6,1.9,1.8,3.4,3.4,4.5c1.6,1.1,3.9,1.6,6.8,1.6c4,0,6.9-1.1,8.6-3.2c1.7-2.2,2.5-5.4,2.5-9.8V38.3
		c0-2.1,0.5-3.7,1.4-4.7c0.9-1,2.2-1.6,3.7-1.6c1.6,0,2.8,0.5,3.8,1.6c1,1,1.4,2.6,1.4,4.7v24.6c0,4-0.4,7.3-1.2,10
		c-0.8,2.7-2.3,5-4.4,7c-1.9,1.7-4,3-6.5,3.8c-2.5,0.8-5.3,1.2-8.7,1.2c-3.9,0-7.3-0.4-10.1-1.3c-2.8-0.8-5.2-2.2-7-3.9
		c-1.8-1.8-3.1-4.1-3.9-6.8C160.6,70.1,160.2,66.7,160.2,62.9"/>
	<path class="st2" d="M240.7,72.4c0,2.6-0.6,4.9-1.9,6.8c-1.3,1.9-3.2,3.3-5.7,4.3c-2.5,1-5.5,1.4-9.1,1.4c-3.4,0-6.3-0.5-8.8-1.6
		c-2.4-1.1-4.2-2.4-5.4-3.9c-1.2-1.6-1.7-3.1-1.7-4.7c0-1.1,0.4-1.9,1.1-2.7c0.7-0.7,1.7-1.1,2.8-1.1c1,0,1.8,0.2,2.3,0.7
		c0.5,0.5,1,1.2,1.5,2.1c1,1.7,2.1,3,3.5,3.8c1.4,0.8,3.2,1.3,5.6,1.3c1.9,0,3.5-0.4,4.7-1.3c1.2-0.8,1.8-1.8,1.8-2.9
		c0-1.7-0.6-2.9-1.9-3.7c-1.3-0.8-3.4-1.5-6.3-2.2c-3.3-0.8-5.9-1.7-8-2.6c-2.1-0.9-3.7-2.1-4.9-3.5c-1.2-1.5-1.8-3.3-1.8-5.4
		c0-1.9,0.6-3.7,1.7-5.4c1.1-1.7,2.8-3.1,5-4.1c2.2-1,4.9-1.5,8-1.5c2.5,0,4.7,0.3,6.6,0.8c2,0.5,3.6,1.2,4.9,2.1
		c1.3,0.9,2.3,1.8,3,2.9c0.7,1,1,2.1,1,3.1c0,1.1-0.4,2-1.1,2.7c-0.7,0.7-1.8,1.1-3.1,1.1c-1,0-1.8-0.3-2.5-0.8
		c-0.7-0.6-1.5-1.4-2.3-2.5c-0.7-0.9-1.6-1.7-2.6-2.2c-1-0.6-2.3-0.8-4-0.8c-1.7,0-3.1,0.4-4.3,1.1c-1.1,0.7-1.7,1.6-1.7,2.7
		c0,1,0.4,1.8,1.3,2.5c0.8,0.6,2,1.2,3.4,1.6c1.4,0.4,3.4,0.9,5.9,1.5c3,0.7,5.4,1.6,7.2,2.6c1.9,1,3.3,2.2,4.3,3.5
		C240.2,69.1,240.7,70.7,240.7,72.4"/>
	<path class="st2" d="M269.1,79.5c-2.3,1.8-4.5,3.1-6.7,4c-2.1,0.9-4.6,1.3-7.2,1.3c-2.4,0-4.6-0.5-6.4-1.4c-1.8-1-3.3-2.3-4.3-3.9
		c-1-1.7-1.5-3.4-1.5-5.4c0-2.6,0.8-4.8,2.5-6.7c1.7-1.8,3.9-3.1,6.8-3.7c0.6-0.1,2.1-0.5,4.5-0.9c2.4-0.5,4.5-0.9,6.2-1.3
		c1.7-0.4,3.6-0.9,5.6-1.5c-0.1-2.5-0.6-4.4-1.5-5.5c-0.9-1.2-2.8-1.8-5.6-1.8c-2.4,0-4.2,0.3-5.5,1c-1.2,0.7-2.3,1.7-3.1,3
		c-0.9,1.3-1.5,2.2-1.9,2.7c-0.4,0.4-1.1,0.6-2.3,0.6c-1.1,0-2-0.3-2.8-1c-0.8-0.7-1.2-1.6-1.2-2.6c0-1.7,0.6-3.3,1.8-4.9
		c1.2-1.6,3-2.9,5.6-3.9c2.5-1,5.6-1.5,9.4-1.5c4.2,0,7.5,0.5,9.9,1.5c2.4,1,4.1,2.6,5.1,4.7c1,2.1,1.5,5,1.5,8.5c0,2.2,0,4.1,0,5.7
		c0,1.6,0,3.3-0.1,5.2c0,1.8,0.3,3.7,0.9,5.6c0.6,1.9,0.9,3.2,0.9,3.8c0,1-0.5,1.9-1.4,2.7c-0.9,0.8-2,1.2-3.1,1.2
		c-1,0-2-0.5-2.9-1.4C271.2,82.6,270.2,81.3,269.1,79.5 M268.5,65.7c-1.4,0.5-3.4,1.1-6.1,1.6c-2.7,0.6-4.5,1-5.5,1.3
		c-1,0.3-2,0.8-2.9,1.6c-0.9,0.8-1.4,1.9-1.4,3.3c0,1.4,0.5,2.7,1.6,3.7c1.1,1,2.5,1.5,4.3,1.5c1.9,0,3.6-0.4,5.2-1.2
		c1.6-0.8,2.8-1.9,3.5-3.2c0.9-1.4,1.3-3.8,1.3-7.1V65.7z"/>
	<path class="st2" d="M293.1,37.8v14.1c1.2-1.4,2.4-2.5,3.5-3.3c1.1-0.8,2.4-1.4,3.8-1.8c1.4-0.4,2.9-0.6,4.5-0.6
		c2.4,0,4.6,0.5,6.4,1.5c1.9,1,3.3,2.5,4.4,4.5c0.7,1.1,1.1,2.4,1.4,3.8c0.2,1.4,0.4,3,0.4,4.9v18.3c0,1.9-0.4,3.4-1.3,4.3
		c-0.9,1-2,1.5-3.5,1.5c-3.1,0-4.7-1.9-4.7-5.8V63c0-3.1-0.5-5.4-1.4-7c-0.9-1.6-2.6-2.5-5.2-2.5c-1.7,0-3.2,0.5-4.6,1.4
		c-1.4,1-2.4,2.3-3.1,4c-0.5,1.4-0.8,3.9-0.8,7.6v12.6c0,1.9-0.4,3.3-1.3,4.3c-0.8,1-2,1.5-3.5,1.5c-3.1,0-4.7-1.9-4.7-5.8V37.8
		c0-1.9,0.4-3.4,1.2-4.3c0.8-1,2-1.4,3.5-1.4c1.5,0,2.7,0.5,3.5,1.5C292.7,34.4,293.1,35.9,293.1,37.8"/>
	<path class="st2" d="M347.3,79.5c-2.3,1.8-4.5,3.1-6.7,4c-2.2,0.9-4.6,1.3-7.2,1.3c-2.4,0-4.6-0.5-6.4-1.4c-1.8-1-3.3-2.3-4.3-3.9
		c-1-1.7-1.5-3.4-1.5-5.4c0-2.6,0.8-4.8,2.5-6.7c1.7-1.8,3.9-3.1,6.8-3.7c0.6-0.1,2.1-0.5,4.5-0.9c2.4-0.5,4.5-0.9,6.2-1.3
		c1.7-0.4,3.6-0.9,5.6-1.5c-0.1-2.5-0.6-4.4-1.5-5.5c-0.9-1.2-2.7-1.8-5.6-1.8c-2.4,0-4.2,0.3-5.5,1c-1.2,0.7-2.3,1.7-3.1,3
		c-0.9,1.3-1.5,2.2-1.8,2.7c-0.4,0.4-1.1,0.6-2.3,0.6c-1.1,0-2-0.3-2.8-1c-0.8-0.7-1.2-1.6-1.2-2.6c0-1.7,0.6-3.3,1.8-4.9
		c1.2-1.6,3-2.9,5.5-3.9c2.5-1,5.6-1.5,9.4-1.5c4.2,0,7.5,0.5,9.9,1.5c2.4,1,4.1,2.6,5.1,4.7c1,2.1,1.5,5,1.5,8.5c0,2.2,0,4.1,0,5.7
		c0,1.6,0,3.3-0.1,5.2c0,1.8,0.3,3.7,0.9,5.6c0.6,1.9,0.9,3.2,0.9,3.8c0,1-0.5,1.9-1.4,2.7c-0.9,0.8-2,1.2-3.1,1.2
		c-1,0-1.9-0.5-2.9-1.4C349.4,82.6,348.4,81.3,347.3,79.5 M346.7,65.7c-1.4,0.5-3.4,1.1-6.1,1.6c-2.7,0.6-4.5,1-5.5,1.3
		c-1,0.3-2,0.8-2.9,1.6c-0.9,0.8-1.4,1.9-1.4,3.3c0,1.4,0.6,2.7,1.6,3.7c1.1,1,2.5,1.5,4.3,1.5c1.9,0,3.6-0.4,5.2-1.2
		c1.6-0.8,2.8-1.9,3.5-3.2c0.9-1.4,1.3-3.8,1.3-7.1V65.7z"/>
	<path class="st2" d="M366.1,52.1l6.2,21.3l5.7-19.8c0.6-2.1,1.1-3.5,1.3-4.2c0.3-0.8,0.8-1.5,1.6-2.2c0.8-0.7,1.9-1,3.3-1
		c1.4,0,2.5,0.3,3.3,1c0.8,0.7,1.4,1.4,1.7,2.2c0.3,0.8,0.8,2.2,1.4,4.2l5.7,19.8l6.3-21.3c0.4-1.5,0.8-2.6,1-3.3
		c0.3-0.7,0.7-1.3,1.3-1.8c0.6-0.5,1.5-0.8,2.6-0.8c1.1,0,2.1,0.4,3,1.2c0.8,0.8,1.3,1.7,1.3,2.8c0,1-0.4,2.5-1.1,4.4l-7.8,22.8
		c-0.7,1.9-1.2,3.3-1.6,4.2c-0.4,0.9-1,1.6-1.8,2.3c-0.8,0.7-1.9,1-3.3,1c-1.5,0-2.6-0.4-3.4-1.1c-0.8-0.7-1.4-1.6-1.8-2.7
		c-0.4-1-0.8-2.4-1.3-4.1l-5.4-18.6L379,77.1c-0.7,2.6-1.5,4.5-2.3,5.9c-0.8,1.3-2.2,2-4.3,2c-1,0-1.9-0.2-2.7-0.6
		c-0.7-0.4-1.3-1-1.8-1.7c-0.5-0.8-0.9-1.7-1.3-2.7c-0.4-1-0.7-1.9-0.9-2.5l-7.7-22.8c-0.8-2.1-1.1-3.6-1.1-4.4c0-1,0.4-1.9,1.2-2.8
		c0.8-0.8,1.8-1.2,3-1.2c1.6,0,2.6,0.4,3.2,1.3C364.9,48.4,365.5,49.9,366.1,52.1"/>
	<path class="st2" d="M437.7,79.5c-2.3,1.8-4.5,3.1-6.7,4c-2.1,0.9-4.6,1.3-7.2,1.3c-2.4,0-4.6-0.5-6.4-1.4c-1.8-1-3.3-2.3-4.3-3.9
		c-1-1.7-1.5-3.4-1.5-5.4c0-2.6,0.8-4.8,2.5-6.7c1.6-1.8,3.9-3.1,6.8-3.7c0.6-0.1,2.1-0.5,4.5-0.9c2.4-0.5,4.5-0.9,6.2-1.3
		c1.7-0.4,3.6-0.9,5.6-1.5c-0.1-2.5-0.6-4.4-1.5-5.5c-0.9-1.2-2.8-1.8-5.6-1.8c-2.4,0-4.2,0.3-5.5,1c-1.2,0.7-2.3,1.7-3.1,3
		c-0.9,1.3-1.5,2.2-1.9,2.7c-0.4,0.4-1.1,0.6-2.3,0.6c-1.1,0-2-0.3-2.8-1c-0.8-0.7-1.2-1.6-1.2-2.6c0-1.7,0.6-3.3,1.8-4.9
		c1.2-1.6,3-2.9,5.6-3.9c2.5-1,5.6-1.5,9.4-1.5c4.2,0,7.5,0.5,9.9,1.5c2.4,1,4.1,2.6,5.1,4.7c1,2.1,1.5,5,1.5,8.5c0,2.2,0,4.1,0,5.7
		c0,1.6,0,3.3,0,5.2c0,1.8,0.3,3.7,0.9,5.6c0.6,1.9,0.9,3.2,0.9,3.8c0,1-0.5,1.9-1.4,2.7c-0.9,0.8-2,1.2-3.1,1.2
		c-1,0-1.9-0.5-2.9-1.4C439.8,82.6,438.8,81.3,437.7,79.5 M437.1,65.7c-1.4,0.5-3.4,1.1-6.1,1.6c-2.7,0.6-4.5,1-5.5,1.3
		c-1,0.3-2,0.8-2.9,1.6c-0.9,0.8-1.4,1.9-1.4,3.3c0,1.4,0.5,2.7,1.6,3.7c1.1,1,2.5,1.5,4.3,1.5c1.9,0,3.6-0.4,5.2-1.2
		c1.6-0.8,2.8-1.9,3.5-3.2c0.9-1.4,1.3-3.8,1.3-7.1V65.7z"/>
	<path class="st2" d="M461.1,51.4v1.2c1.7-2.2,3.5-3.8,5.5-4.9c2-1,4.3-1.6,6.9-1.6c2.5,0,4.8,0.5,6.7,1.6c2,1.1,3.5,2.6,4.4,4.6
		c0.6,1.2,1,2.4,1.2,3.8c0.2,1.3,0.3,3.1,0.3,5.2v17.7c0,1.9-0.4,3.4-1.3,4.3c-0.9,1-2,1.5-3.4,1.5c-1.4,0-2.6-0.5-3.5-1.5
		c-0.9-1-1.3-2.4-1.3-4.3V63.2c0-3.1-0.4-5.5-1.3-7.2c-0.9-1.7-2.6-2.5-5.2-2.5c-1.7,0-3.2,0.5-4.6,1.5c-1.4,1-2.4,2.4-3.1,4.2
		c-0.5,1.4-0.7,4.1-0.7,8v11.9c0,1.9-0.5,3.4-1.4,4.3c-0.9,1-2.1,1.4-3.5,1.4c-1.4,0-2.5-0.5-3.4-1.5c-0.9-1-1.3-2.4-1.3-4.3V51.6
		c0-1.8,0.4-3.2,1.2-4.1c0.8-0.9,1.9-1.3,3.2-1.3c0.8,0,1.6,0.2,2.3,0.6c0.7,0.4,1.2,1,1.6,1.8C460.9,49.3,461.1,50.3,461.1,51.4"/>
	<path class="st1" d="M24,41.5c-3.4-2.6-8.2-2-10.8,1.3c-2.6,3.4-2,8.2,1.3,10.8c3.4,2.6,8.2,2,10.8-1.3C28,48.9,27.4,44.1,24,41.5"
		/>
	<path class="st1" d="M11.5,33.8c-0.2,0.4-0.4,0.9-0.6,1.3c-0.2,0.6-0.4,1.2-0.7,1.7c-0.1,0.4-0.3,0.7-0.4,1.1C9.6,39,9.3,40,9,40.9
		c3.1-6.5,7.2-10.4,11.4-10.3c3.5,0.1,6.6,3,9,7.7c0.2,0.4,0.4,0.8,0.6,1.2c0.1,0.3,0.2,0.5,0.4,0.8c0.2,0.4,0.4,0.9,0.5,1.3
		c0.1,0.3,0.2,0.6,0.3,0.9c0.2,0.5,0.3,1,0.5,1.4c0.1,0.3,0.2,0.6,0.3,1c0.2,0.5,0.3,1,0.4,1.5c0.1,0.3,0.2,0.7,0.3,1
		c0.1,0.5,0.3,1.1,0.4,1.6c0.1,0.4,0.2,0.7,0.2,1.1c0.1,0.6,0.2,1.2,0.3,1.8c0.1,0.4,0.1,0.7,0.2,1.1c0.1,0.7,0.2,1.3,0.3,2
		c0,0.3,0.1,0.6,0.1,1c0.1,1,0.2,2.1,0.3,3.1c0.7-11.7,6.1-23.1,15.7-31.5c0.7-0.6,1.5-1.2,2.2-1.8c0.2-0.1,0.4-0.3,0.5-0.4
		c0.7-0.5,1.4-1,2.1-1.5c0.1,0,0.1-0.1,0.2-0.1c0.8-0.5,1.6-1,2.4-1.5c0.1-0.1,0.3-0.1,0.4-0.2c0.7-0.4,1.5-0.8,2.2-1.2
		c6.6-3.2,13.8-4.7,20.9-4.4c-0.9-0.8-1.9-1.5-2.9-2.2c-0.4-0.3-0.7-0.5-1.1-0.7c-0.4-0.3-0.9-0.6-1.3-0.9c0,0-0.1,0-0.1,0
		c-15.9-9.8-37.3-8.5-52.5,4.7c-4.4,3.8-7.9,8.2-10.4,13c0,0,0,0,0,0c0,0.1-0.1,0.2-0.1,0.3c-0.2,0.4-0.4,0.9-0.7,1.3
		C11.9,32.8,11.7,33.3,11.5,33.8"/>
	<path d="M74.5,20.9c-3.9,1.6-5.8,6.1-4.2,10c1.6,3.9,6.1,5.8,10,4.2c3.9-1.6,5.8-6.1,4.2-10C82.9,21.2,78.4,19.3,74.5,20.9"/>
	<path d="M101.2,46.6c-1.1-5.7-3.2-10.9-6.1-15.5c0,0,0,0,0-0.1c-0.1-0.1-0.1-0.2-0.2-0.3c-0.3-0.4-0.5-0.8-0.8-1.2
		c-0.3-0.5-0.6-0.9-0.9-1.4c-0.3-0.4-0.6-0.8-0.9-1.2c-0.4-0.5-0.8-1-1.2-1.4c-0.3-0.3-0.5-0.6-0.8-0.9c-0.7-0.8-1.4-1.5-2.1-2.2
		c4.1,5.9,5.5,11.4,3.2,15c-1.9,3-5.9,4.2-11.2,3.9c-0.4,0-0.8-0.1-1.3-0.1c-0.3,0-0.6-0.1-1-0.1c-0.4-0.1-0.9-0.1-1.4-0.2
		c-0.3-0.1-0.7-0.1-1-0.2c-0.5-0.1-0.9-0.2-1.4-0.3c-0.4-0.1-0.7-0.2-1.1-0.2c-0.5-0.1-1-0.2-1.5-0.4c-0.4-0.1-0.7-0.2-1.1-0.3
		c-0.5-0.1-1-0.3-1.5-0.5c-0.4-0.1-0.7-0.2-1.1-0.4c-0.5-0.2-1.1-0.4-1.6-0.6c-0.4-0.1-0.7-0.3-1.1-0.4c-0.6-0.2-1.2-0.5-1.8-0.7
		c-0.3-0.1-0.7-0.3-1-0.4c-0.9-0.4-1.9-0.9-2.8-1.3c9.7,6.5,17,16.8,19.4,29.4c0.2,0.9,0.3,1.9,0.4,2.8c0,0.2,0.1,0.4,0.1,0.7
		c0.1,0.8,0.2,1.7,0.2,2.5c0,0.1,0,0.2,0,0.3c0,1,0.1,1.9,0,2.9c0,0.2,0,0.3,0,0.5c0,0.8-0.1,1.7-0.1,2.5C79,84.2,76.7,91.1,73,97.1
		c0.9-0.3,1.9-0.7,2.8-1.1c0.2-0.1,0.3-0.1,0.4-0.2c0.9-0.4,1.8-0.8,2.6-1.3c0,0,0.1,0,0.1,0c0,0,0,0,0,0
		C95.4,85.6,105,66.4,101.2,46.6"/>
	<path class="st2" d="M65.2,79.9c-4.2-0.6-8.1,2.4-8.7,6.6c-0.6,4.2,2.4,8.1,6.6,8.7c4.2,0.6,8.1-2.4,8.7-6.6
		C72.4,84.4,69.4,80.5,65.2,79.9"/>
	<path class="st2" d="M56.2,101.2c0.5-0.1,0.9-0.1,1.4-0.2c0.6-0.1,1.3-0.2,1.9-0.3c0.4-0.1,0.8-0.1,1.1-0.2c1-0.2,2-0.4,3-0.7
		c-7.2,0.6-12.6-1-14.6-4.8c-1.6-3.1-0.7-7.2,2.2-11.7c0.2-0.4,0.5-0.7,0.8-1.1c0.2-0.2,0.3-0.5,0.5-0.7c0.3-0.4,0.6-0.7,0.9-1.1
		c0.2-0.3,0.4-0.5,0.6-0.8c0.3-0.4,0.6-0.7,1-1.1c0.3-0.3,0.5-0.5,0.7-0.8c0.3-0.4,0.7-0.7,1-1.1c0.3-0.3,0.6-0.6,0.8-0.8
		c0.4-0.3,0.7-0.7,1.1-1c0.3-0.3,0.6-0.6,0.9-0.8c0.4-0.3,0.8-0.7,1.2-1c0.3-0.3,0.7-0.5,1-0.8c0.5-0.4,1-0.7,1.4-1.1
		c0.3-0.2,0.6-0.5,0.9-0.7c0.8-0.6,1.7-1.2,2.5-1.8c-10.5,5.2-23.1,6.3-35.1,2.1c-0.9-0.3-1.8-0.7-2.7-1c-0.2-0.1-0.5-0.2-0.7-0.3
		c-0.7-0.3-1.5-0.7-2.2-1c-0.1-0.1-0.2-0.1-0.3-0.2c-0.8-0.4-1.7-0.9-2.5-1.4c-0.2-0.1-0.3-0.2-0.5-0.3c-0.7-0.4-1.4-0.8-2-1.3
		c-6.1-4.2-11-9.7-14.4-15.9c-0.2,1-0.3,2-0.4,3c0,0.2,0,0.3,0,0.5c-0.1,1-0.2,2-0.2,2.9v0.1v0C5.3,74.4,17.2,92.3,36.2,98.9
		c5.5,1.9,11,2.7,16.5,2.5c0,0,0,0,0,0c0.1,0,0.2,0,0.3,0c0.5,0,1-0.1,1.5-0.1C55.1,101.3,55.7,101.2,56.2,101.2"/>
	<polygon class="st3" points="494.3,49.2 491.9,49.2 491.9,48.3 497.9,48.3 497.9,49.2 495.4,49.2 495.4,56.4 494.3,56.4 	"/>
	<path class="st3" d="M505.6,52.8c-0.1-1.1-0.1-2.5-0.1-3.5h0c-0.3,1-0.6,2-1,3.1l-1.4,3.9h-0.8l-1.3-3.9c-0.4-1.1-0.7-2.2-0.9-3.2
		h0c0,1-0.1,2.4-0.2,3.6l-0.2,3.5h-1l0.6-8.1h1.3l1.4,3.9c0.3,1,0.6,1.9,0.8,2.7h0c0.2-0.8,0.5-1.7,0.9-2.7l1.4-3.9h1.3l0.5,8.1h-1
		L505.6,52.8z"/>
</g>
</svg>
